<?xml version="1.0" encoding="UTF-8"?>
<svg id="_レイヤー_1" data-name="レイヤー_1" xmlns="http://www.w3.org/2000/svg" version="1.1" viewBox="0 0 24 24">
  <!-- Generator: Adobe Illustrator 29.1.0, SVG Export Plug-In . SVG Version: 2.1.0 Build 142)  -->
  <defs>
    <style>
      .st0 {
        fill: #fff;
      }
    </style>
  </defs>
  <path class="st0" d="M4.9,0C2.2,0,0,2.2,0,4.9c0,0,0,0,0,0v14.1c0,2.7,2.2,4.9,4.9,4.9,0,0,0,0,0,0h14.1c2.7,0,4.9-2.2,4.9-4.9,0,0,0,0,0,0V4.9C24,2.2,21.8,0,19.1,0c0,0,0,0,0,0H4.9ZM12.7,4.5c2.2,0,4.1.7,5.4,1.8,1.4,1.2,2.1,2.9,2.1,4.7,0,1.9-.9,3.5-2.3,4.6-1.4,1.1-3.2,1.7-5.3,1.7s-4.5-.8-4.5-.8v2.7c.4.1,1,.4.6.8h-3.1c-.4-.4.2-.6.6-.8V7.7c-1.1.8-1.6,1.5-1.9,2,.3,1-.3,1-.3,1l-1.1-1.7s3.9-4.4,9.6-4.4h0ZM12.6,5.5c-1.4,0-3.2.5-4.3,1.2v8.6c1,.5,2.5.8,4.3.8h0c1.6,0,3-.6,3.9-1.5,1-.9,1.5-2.2,1.5-3.7,0-1.5-.5-2.9-1.4-3.9-.9-1-2.3-1.6-4-1.6Z"/>
</svg>