<?xml version="1.0" encoding="UTF-8"?>
<svg id="_レイヤー_1" xmlns="http://www.w3.org/2000/svg" version="1.1" xmlns:xlink="http://www.w3.org/1999/xlink" viewBox="0 0 512 512">
  <!-- Generator: Adobe Illustrator 29.1.0, SVG Export Plug-In . SVG Version: 2.1.0 Build 142)  -->
  <defs>
    <style>
      .st0 {
        fill: #0096fa;
        fill-rule: evenodd;
      }

      .st1 {
        fill: #fff;
      }

      .st2 {
        fill: none;
      }

      .st3 {
        clip-path: url(#clippath-1);
      }

      .st4 {
        clip-path: url(#clippath);
      }
    </style>
    <clipPath id="clippath">
      <path class="st2" d="M387.1,136.4c-28.6-25-68.6-39.4-115.2-39.4-121.3,0-203.8,93.6-203.8,93.6l23.2,36.9s12.9,1.1,6.1-20.7c5.9-11.1,17.4-26.1,39.9-43.3v245.8c-9.7,2.7-22.5,7.9-13.8,16.6h66.8c8.8-8.8-5.1-14.1-13.5-16.6v-58s45.8,18,95.2,18,82.8-12.9,112.2-36.2c29.4-23.2,48.3-57.8,48.1-97.4,0-38.8-16.5-74.5-45.1-99.4M267.8,346.5c-38,0-70-7.3-91.1-17.7v-184.4c23.2-16.5,60.7-26.6,91.1-26.5,36.9,0,65.8,14,85.4,35.1,19.5,21.3,30.2,49.5,30.3,82.4-.1,32-11.5,58.3-31.8,78.6-20.3,20-49.8,32.7-83.9,32.7Z"/>
    </clipPath>
    <clipPath id="clippath-1">
      <rect class="st2" y="0" width="512" height="512"/>
    </clipPath>
  </defs>
  <path class="st0" d="M512,105.4c0-58-47.4-105.4-105.4-105.4H105.4C47.4,0,0,47.4,0,105.4v301.2c0,58,47.4,105.4,105.4,105.4h301.2c58,0,105.4-47.4,105.4-105.4-.3,28.9,0-301.2,0-301.2Z"/>
  <g id="p">
    <g class="st4">
      <g class="st3">
        <rect class="st1" x="63.1" y="92" width="374.1" height="339"/>
      </g>
    </g>
  </g>
</svg>