<?xml version="1.0" encoding="UTF-8"?>
<svg id="_レイヤー_1" data-name="レイヤー_1" xmlns="http://www.w3.org/2000/svg" version="1.1" viewBox="0 0 24 24">
  <!-- Generator: Adobe Illustrator 29.1.0, SVG Export Plug-In . SVG Version: 2.1.0 Build 142)  -->
  <defs>
    <style>
      .st0, .st1 {
        fill: none;
      }

      .st1 {
        stroke: #fff;
        stroke-linecap: round;
        stroke-linejoin: round;
        stroke-width: 2px;
      }
    </style>
  </defs>
  <path class="st0" d="M0,0h24v24H0V0Z"/>
  <path class="st1" d="M6.3,5.1c-1.7-1.2-4.3-2.1-4.3.8s.3,5,.6,5.7c.7,2.5,3.1,2.8,5.4,2.4-4,.7-4.9,3.2-2.7,5.4,1,1,1.9,1.6,2.7,1.6,2,0,3.1-2.8,3.5-3.5.3-.7.5-1.2.5-1.5,0,.3.2.8.5,1.5.4.7,1.5,3.5,3.5,3.5s1.6-.6,2.7-1.6c2.2-2.2,1.4-4.7-2.7-5.4,2.3.4,4.7,0,5.4-2.4.2-.7.6-5.1.6-5.7,0-3-2.7-2-4.3-.8-2.3,1.7-4.8,5-5.7,6.9-.9-1.8-3.4-5.2-5.7-6.9Z"/>
</svg>