<?xml version="1.0" encoding="UTF-8"?>
<svg id="_レイヤー_1" data-name="レイヤー_1" xmlns="http://www.w3.org/2000/svg" version="1.1" viewBox="0 0 24 24">
  <!-- Generator: Adobe Illustrator 29.1.0, SVG Export Plug-In . SVG Version: 2.1.0 Build 142)  -->
  <defs>
    <style>
      .st0, .st1 {
        fill: none;
      }

      .st1 {
        stroke: #fff;
        stroke-linecap: round;
        stroke-linejoin: round;
        stroke-width: 2px;
      }
    </style>
  </defs>
  <path class="st0" d="M0,0h24v24H0V0Z"/>
  <path class="st1" d="M22,4c-1,.5-2,.7-3,1-1.1-1.3-2.8-1.3-4.4-.7s-2.6,2.1-2.6,3.7v1c-3.2,0-6.1-1.4-8-4,0,0-4.2,7.4,4,11-1.9,1.2-3.7,2.1-6,2,3.3,1.8,6.9,2.4,10,1.5,3.6-1,6.5-3.7,7.7-7.7.3-1.2.5-2.5.5-3.8,0-.2,1.5-2.8,1.8-4h0Z"/>
</svg>