<?xml version="1.0" encoding="UTF-8"?>
<svg id="_レイヤー_1" data-name="レイヤー_1" xmlns="http://www.w3.org/2000/svg" version="1.1" xmlns:xlink="http://www.w3.org/1999/xlink" viewBox="0 0 615 232">
  <!-- Generator: Adobe Illustrator 29.2.1, SVG Export Plug-In . SVG Version: 2.1.0 Build 116)  -->
  <defs>
    <style>
      .st0 {
        fill: none;
      }

      .st1 {
        clip-path: url(#clippath);
      }
    </style>
    <clipPath id="clippath">
      <rect class="st0" width="614.1" height="231.6"/>
    </clipPath>
  </defs>
  <g class="st1">
    <g>
      <path d="M254.2,99.1c-5.3-.1-12.8.1-18.2.1v27.8h7.8v-21s6.9-.2,9.4,0c2.3.3,3.2,1.7,3.3,4.7,0,3.4,0,5.3,0,16.2h7.8s0-12.5,0-16.9c-.1-7.7-2.8-10.9-10-11Z"/>
      <path d="M290.1,99c-7.7,0-13.9,6.3-13.9,14s6.3,14,13.9,14,13.9-6.3,13.9-14-6.3-14-13.9-14ZM290.1,120.4c-4,0-7.3-3.3-7.3-7.4s3.3-7.4,7.3-7.4,7.3,3.3,7.3,7.4-3.3,7.4-7.3,7.4Z"/>
      <path d="M377.6,113c0-7.7-6.3-14-13.9-14s-13.9,6.3-13.9,14,2.1,8.4,5.3,11c2.3,1.8,5.4,3,9.6,3s7.4-.6,11.2-4.8l-3.1-4.2c-1.3,1.2-4.7,2.8-7.4,2.8s-5.4-.7-6.9-2c-.9-.8-1.6-2.1-1.9-3.7h20.9c.1-.7.2-1.4.2-2.1ZM356.6,110.5c.8-3.3,3.1-5.7,7-5.7s6.3,2.6,7,5.7h-14Z"/>
      <path d="M330.5,96.4h-7.3v7.8h-7.5v6.8h7.5v8.1h7.3v-8.1h7.5v-6.8h-7.5v-7.8Z"/>
    </g>
  </g>
</svg>