<?xml version="1.0" encoding="UTF-8"?>
<svg id="_レイヤー_1" data-name="レイヤー 1" xmlns="http://www.w3.org/2000/svg" viewBox="0 0 188.76 188.76">
  <defs>
    <style>
      .cls-1 {
        fill: #fff;
      }

      .cls-2 {
        fill: gray;
      }
    </style>
  </defs>
  <rect class="cls-1" width="188.76" height="188.76"/>
  <path class="cls-2" d="M59.95,137.53c-2.48,0-4.55-.83-6.22-2.49s-2.49-3.74-2.49-6.22V59.95c0-2.48.83-4.55,2.49-6.22s3.74-2.49,6.22-2.49h68.87c2.48,0,4.55.83,6.22,2.49s2.49,3.74,2.49,6.22v68.87c0,2.48-.83,4.55-2.49,6.22s-3.74,2.49-6.22,2.49H59.95ZM59.95,132.13h68.87c.83,0,1.59-.35,2.28-1.04.69-.69,1.04-1.45,1.04-2.28V59.95c0-.83-.35-1.59-1.04-2.28-.69-.69-1.45-1.04-2.28-1.04H59.95c-.83,0-1.59.35-2.28,1.04-.69.69-1.04,1.45-1.04,2.28v68.87c0,.83.35,1.59,1.04,2.28.69.69,1.45,1.04,2.28,1.04ZM70.11,118.65h49.37l-15.25-20.33-14.11,17.84-9.44-11.41-10.58,13.9ZM56.63,132.13V56.63v75.51Z"/>
</svg>