<?xml version="1.0" encoding="UTF-8"?>
<svg id="_レイヤー_1" xmlns="http://www.w3.org/2000/svg" version="1.1" viewBox="0 0 188.8 188.8">
  <!-- Generator: Adobe Illustrator 29.2.1, SVG Export Plug-In . SVG Version: 2.1.0 Build 116)  -->
  <defs>
    <style>
      .st0 {
        fill: #fff;
      }

      .st1 {
        fill: gray;
      }
    </style>
  </defs>
  <rect class="st0" width="188.8" height="188.8"/>
  <path class="st1" d="M74.4,119.4c-1.4,0-2.6-.5-3.6-1.4s-1.4-2.2-1.4-3.6v-39.9c0-1.4.5-2.6,1.4-3.6s2.2-1.4,3.6-1.4h39.9c1.4,0,2.6.5,3.6,1.4s1.4,2.2,1.4,3.6v39.9c0,1.4-.5,2.6-1.4,3.6s-2.2,1.4-3.6,1.4h-39.9ZM74.4,116.2h39.9c.5,0,.9-.2,1.3-.6.4-.4.6-.8.6-1.3v-39.9c0-.5-.2-.9-.6-1.3-.4-.4-.8-.6-1.3-.6h-39.9c-.5,0-.9.2-1.3.6-.4.4-.6.8-.6,1.3v39.9c0,.5.2.9.6,1.3.4.4.8.6,1.3.6h0ZM80.3,108.4h28.6l-8.8-11.8-8.2,10.3-5.5-6.6-6.1,8h0ZM72.5,116.2v-43.7,43.7h0Z"/>
</svg>