<?xml version="1.0" encoding="UTF-8"?>
<svg id="_レイヤー_5" data-name="レイヤー 5" xmlns="http://www.w3.org/2000/svg" viewBox="0 0 1024 1024">
  <defs>
    <style>
      .cls-1 {
        fill: transparent;
      }

      .cls-2 {
        fill: #1e2c3d;
      }
    </style>
  </defs>
  <circle class="cls-1" cx="512" cy="512" r="499.26"/>
  <path class="cls-2" d="M197.46,881.7c-2.79,9.26-5.46,18.58-8,27.94C73.87,815.78,0,672.52,0,512,0,337.5,87.3,183.38,220.61,90.95l14.94,22.02C109.28,200.61,26.6,346.65,26.6,512c0,148.08,66.31,280.68,170.86,369.7Z"/>
  <path class="cls-2" d="M882.96,159.11c-9.12,3.29-18.19,6.68-27.2,10.2-87.88-88.16-209.45-142.71-343.76-142.71-79.07,0-153.73,18.91-219.69,52.45l-11.8-23.85C350.03,19.9,428.69,0,512,0c145.98,0,277.69,61.09,370.96,159.11Z"/>
  <path class="cls-2" d="M346.02,479.52l-6.14,4.13-41.04,27.61c-3.2,2.15-7.55,1.3-9.7-1.9l-24-35.68c-2.15-3.2-1.3-7.55,1.9-9.7l56.72-38.15c.32,1.96,1.16,5.58,2.42,10.42l-35.98,24.21c-3.2,2.15-4.05,6.5-1.9,9.7l1.86,2.76c2.15,3.2,6.5,4.05,9.7,1.9l31.15-20.95,6.18-4.16c2.5,8.8,5.52,19.06,8.83,29.81Z"/>
  <g>
    <path class="cls-2" d="M564.54,604.98c-4.07-5.72-10.26-13.8-13.99-19.63-3.77-5.79-9.71-14.19-13.37-19.94-2.38-3.68-4.76-7.4-7.15-11.15l-66.77,16.9,47.16,39.46-72.14,190.88,176.81-46.77v50.71l41.61-21.34,20.92,65.6,36.49-84.21c-57.63-45.21-105.71-102.17-149.57-160.51Z"/>
    <path class="cls-2" d="M894.05,171.15c-9.04,3.18-18.03,6.49-26.96,9.91-21.8,8.34-43.26,17.37-64.36,27.04-19.42-2.52-47.4-6.43-68.81-10.62-36.39-7.12-82.28-13.45-82.28-13.45-20.57-6.33-65.94-27.69-65.94-27.69-11.86-6.07-38.77-19.52-51.95-32.18,0,0,7.12,43.39,19.78,54.86,0,0-30.07-1.58-51.43-16.88,0,0-41.67-.52-97.58-11.34-55.92-10.81-87.83-27.16-106.29-40.09-12.57-8.8-22.94-12.09-34.11-16.13-5.23-1.89-10.63-3.94-16.52-6.8.23.28,4.02,4.85,9.17,11.27,11.14,13.87,28.69,36.36,30.65,42.79,2.9,9.49,5.8,36.13,10.55,65.67,4.74,29.53,17.4,73.58,17.93,81.75,0,0-32.15-13.34-53.43-37.95.27.79,9.02,26.19,18.88,49.56,9.33,22.1,35.78,71.9,44.47,84.54.64.93,1.19,1.66,1.62,2.16,0,0,.54,18.75,2.69,34.01.09.65.18,1.29.28,1.93.25,1.64.92,4.61,1.94,8.63,1.17,4.65,2.81,10.69,4.78,17.65l31.51-21.2c3.2-2.15,7.55-1.3,9.7,1.9l8.75,13.01c2.15,3.2,1.3,7.54-1.9,9.7l-39.23,26.4c4.13,13.42,8.69,27.61,13.19,40.7,1.39,4.03,2.79,7.94,4.16,11.69,3.98,10.8,7.81,20.26,10.76,27.28,3.3,7.86,5.52,12.67,5.65,12.97-.23-.16-4.03-2.89-9.43-7.72-10.37-9.28-26.64-26.33-34.87-47.92,0,0,4.22,34.82,12.92,61.19,0,0,.63,1.76,1.79,4.81.71,1.87,1.62,4.22,2.7,6.94.46,1.16.95,2.39,1.48,3.68.01.03.02.06.03.1,8.83,25.24,19.63,50.09,35.16,71.77,8.59,11.98,18.28,23.27,29.15,33.23,3.72,3.41,4.36,9.03,1.47,13.16h0c-3.39,4.85-10.23,5.72-14.73,1.88-4.45-3.8-9.06-7.76-9.33-8.03-17.92-17.91-19.21-20.65-30.7-41.86-7.77-14.46-13.45-29.86-17.99-45.57-1.34-4.85-2.59-9.71-3.69-14.61-57.8,88.21-103.16,185.31-133.59,288.79-2.71,9.18-5.29,18.4-7.75,27.68,85.99,65.41,193.3,104.24,309.67,104.24,79.84,0,155.42-18.28,222.76-50.87,21.06-10.19,41.31-21.78,60.64-34.66,137.8-91.74,228.6-248.5,228.6-426.47,0-130.9-49.12-250.33-129.95-340.85ZM726.94,245.38c2.9,1.37,5.69,2.54,8.3,3.45,25.85,8.96,33.56,1.78,42.99,7.84,8.51,5.48,4.35,58.35,4.35,58.35,0,0-45.75-33.83-58.22-47.47-2.81-3.06-7.29-7.91-12.57-13.58-17.81-19.18-44.61-47.81-45.62-48.89,1.18.94,35.38,28.32,60.77,40.3ZM803.89,818.36c-3.85-1.25-7.78-2.61-11.5-4.22-14.82-6.32-28.99-14.31-42.54-23.03-5.69-3.7-11.3-7.52-16.81-11.45l-58.7,135.46-31.3-98.17-50.95,26.13v-58.48l-191.11,50.56,82.15-217.39-69.15-57.86,103.2-26.13c-12.33-19.9-24.49-40.31-35.8-59.93-4.55-7.85-9.05-15.75-13.52-23.67-7.2-12.79-14.3-25.66-21.28-38.59-6.39-6.06-12.69-12.21-18.59-18.84-14.71-17.05-34.74-39.13-49.75-56l19.4,4.16c.39.11,1.24.22,1.64.29,3.76.48,7.53.87,11.31,1.21-2.51-5.02-5.01-10.04-7.48-15.07-14.16-28.35-27.22-57.29-37.26-87.43-2.51-7.57-4.89-15.21-6.8-23.08l.9-.44c31.23,39.59,55.16,83.99,79.32,128.11,2.34,4.27,4.69,8.55,7.05,12.81-9.69-.49-19.38-1.03-29.07-1.7-1.3-.09-2.61-.18-3.91-.28,2.54,2.55,5.14,5.18,7.74,7.81,7.26,7.33,14.47,14.67,19.88,20.31,7.89,7.78,16.55,15.04,25.03,22.28,4.45,3.77,8.95,7.53,13.46,11.25h0c2.19,3.96,4.39,7.92,6.59,11.88.31.56.62,1.12.94,1.68,7.06,12.67,14.17,25.35,21.31,37.9,9.46,3.79,18.17,9.31,26.34,15.28,7.27,5.6,16.35,12.57,23.78,17.87,7.27,5.2,14.27,10.7,21.08,16.42,6.28,5.25,12.41,10.67,18.46,16.19,5.23,4.76,10.4,9.59,15.55,14.43l7.48,7.02c2.5,2.37,5,4.64,7.63,6.91l-.46.89c-13.34-4.12-25.62-10.8-37.86-17.22-3.04-1.62-6.05-3.27-9.04-4.94-9.78-5.44-19.32-11.04-29.02-16.38-2.01-1.11-4.02-2.21-6.05-3.29-3.38-1.81-6.87-3.81-10.31-5.86,2.32,3.84,4.66,7.68,7.02,11.51,4.23,6.88,8.5,13.72,12.81,20.49,1.36,2.15,2.73,4.28,4.1,6.41,4.3,6.42,10.88,14.96,14.72,21.69,35.66,62.43,94.44,116.93,149.66,166.4,6.08,5.45,12.12,10.84,18.07,16.16,2.65,2.38,5.29,4.74,7.91,7.09,17.76,15.95,37.88,34.21,54.26,51.99l-.53.86Z"/>
  </g>
</svg>